# xmcd
#
# Track frame offsets:
#	183
#	12713
#	26113
#	42500
#	53358
#	66645
#	77430
#	88210
#	99343
#	113333
#	122710
#	139190
#	157180
#	167295
#	185805
#	196325
#	205843
#	218273
#
# Disc length: 3051 seconds
#
# Revision: 2
# Processed by: cddbd v1.5.2PL0 Copyright (c) Steve Scherf et al.
# Submitted via: audiograbber 1.83.01
#
DISCID=f50be912
DTITLE=Sampler Country - Country Gold - Volume 1 CD2
DYEAR=1990
DGENRE=Country
TTITLE0=Snow, Hank - Hello love
TTITLE1=Jennings, Waylon - Good hearted woman
TTITLE2=Lee, Dickey - Rocky
TTITLE3=Rich, Charlie - There won't be anymore
TTITLE4=Parton, Dolly - Here you come again
TTITLE5=Milsap, Ronnie - Daydreams about night things
TTITLE6=Jennings, Waylon - This time
TTITLE7=Pridesmen, The - Ghost riders in the sky
TTITLE8=Dean, Jimmy and Dottie West - Jackson
TTITLE9=Wagoner, Porter and Dolly Parton - Oh, the pain of loving you
TTITLE10=Bare, Bobby and The Family - Singin' in the kitchen
TTITLE11=Davis, Skeeter - If you could read my mind
TTITLE12=Reed, Jerry - Red hot picker
TTITLE13=Snow, Hank - Frankie and Johnny
TTITLE14=Smith, Connie and Nat Stuckey - Young love
TTITLE15=West, Dottie - Make the world go away
TTITLE16=Reeves, Jim - I love you because
TTITLE17=Smith, Connie - Louisiana man
EXTD=
EXTT0=
EXTT1=
EXTT2=
EXTT3=
EXTT4=
EXTT5=
EXTT6=
EXTT7=
EXTT8=
EXTT9=
EXTT10=
EXTT11=
EXTT12=
EXTT13=
EXTT14=
EXTT15=
EXTT16=
EXTT17=
PLAYORDER=
